<svg width="500" height="500" viewBox="0 0 500 500" fill="none" xmlns="http://www.w3.org/2000/svg">
<g clip-path="url(#clip0_11_2)">
<rect width="500" height="500" fill="white"/>
<path fill-rule="evenodd" clip-rule="evenodd" d="M135.169 350.524C114.545 367.737 83.8204 366.663 64.4581 347.3C45.1428 327.985 44.0267 297.362 61.11 276.74L61.0981 276.728L61.227 276.599L61.235 276.59L61.2358 276.591L114.868 222.958L94.7043 202.795L108.147 189.352L128.31 209.516L141.753 222.958L74.6782 290.033L74.821 290.176C65.0114 303.26 66.0565 321.904 77.9562 333.804C89.8559 345.703 108.5 346.748 121.584 336.939L121.672 337.027L222.903 235.795L236.401 249.293L135.169 350.524L135.169 350.524ZM64.5713 272.951L64.4581 273.064C64.4155 273.107 64.373 273.149 64.3306 273.192L64.212 273.312L64.7057 272.818C64.6609 272.862 64.6161 272.907 64.5713 272.951ZM114.868 303.612L101.425 290.17L175.057 216.538L121.288 162.768L121.2 162.855C108.169 153.086 89.6013 154.127 77.7503 165.978C65.8992 177.829 64.8584 196.397 74.6278 209.427L61.0979 222.957C43.9545 202.418 45.0244 171.818 64.3077 152.535C83.5911 133.252 114.191 132.182 134.73 149.325L134.73 149.325L201.943 216.538L188.801 229.679L188.802 229.679L188.5 229.98L188.5 229.98L114.868 303.612ZM74.5405 236.401L61.0981 222.958L74.5405 209.516L87.983 222.958L74.5405 236.401ZM434.678 151.835C415.315 132.472 384.59 131.398 363.967 148.612L363.966 148.611L262.735 249.842L276.233 263.34L377.464 162.109L377.552 162.197C390.636 152.387 409.28 153.432 421.18 165.332C433.079 177.231 434.124 195.875 424.315 208.959L424.457 209.102L360.983 272.577L360.894 272.665L360.806 272.754L357.383 276.177L370.825 289.619L437.9 222.545L437.901 222.545L437.907 222.537L438.038 222.407L438.026 222.395C455.109 201.773 453.993 171.15 434.678 151.835ZM138.241 152.535L138.308 152.602L138.175 152.468L138.241 152.535ZM434.678 226.071C434.603 226.146 434.528 226.22 434.453 226.295L434.901 225.846L434.805 225.943L434.743 226.005L434.678 226.071ZM404.432 296.341L384.268 276.177L370.825 289.62L390.989 309.783L404.432 296.341ZM397.71 208.964L384.268 195.522L337.219 242.571L337.219 242.571L297.194 282.596L364.406 349.809L377.848 336.366L324.078 282.596L397.71 208.964ZM364.406 349.809C384.945 366.952 415.545 365.882 434.828 346.599C454.111 327.315 455.181 296.716 438.038 276.177L424.508 289.707C434.277 302.738 433.237 321.305 421.386 333.156C409.534 345.007 390.967 346.048 377.936 336.279L364.406 349.809ZM434.828 272.665L434.71 272.548L434.945 272.783L434.828 272.665ZM438.038 276.177L424.595 262.734L411.153 276.177L424.595 289.619L438.038 276.177ZM337.027 378.014L235.795 276.783L249.293 263.285L350.524 364.517L350.524 364.517C367.737 385.141 366.663 415.866 347.301 435.228C327.985 454.543 297.362 455.659 276.74 438.576L276.728 438.588L276.596 438.456L276.59 438.451L276.59 438.45L209.516 371.376L222.958 357.933L290.033 425.008L290.176 424.865C303.26 434.675 321.904 433.63 333.804 421.73C345.703 409.83 346.748 391.186 336.939 378.102L337.027 378.014ZM273.064 435.228C272.977 435.141 272.89 435.053 272.804 434.966L273.327 435.488C273.271 435.434 273.216 435.379 273.162 435.325L273.064 435.228ZM202.795 404.982L222.958 384.819L209.516 371.376L189.352 391.54L202.795 404.982ZM290.171 398.261L303.613 384.819L256.564 337.77L229.68 310.885L229.679 310.885L216.539 297.744L149.326 364.957L149.326 364.956C132.183 385.496 133.253 416.095 152.536 435.379C171.82 454.662 202.419 455.732 222.958 438.589L209.428 425.059C196.398 434.828 177.83 433.788 165.979 421.936C154.127 410.085 153.087 391.517 162.856 378.487L162.769 378.399L216.539 324.629L290.171 398.261ZM222.958 438.588L236.401 425.145L222.958 411.703L209.516 425.145L222.958 438.588ZM226.071 65.0087C226.137 65.0745 226.203 65.1404 226.268 65.2064L225.874 64.8121L225.935 64.8732L226.022 64.9592L226.071 65.0087ZM226.47 435.379L226.54 435.309L226.4 435.449L226.47 435.379ZM151.835 65.0087C171.15 45.6933 201.773 44.5774 222.396 61.6608L222.408 61.6487L222.539 61.7798L222.545 61.7855L222.545 61.7861L289.62 128.861L276.177 142.304L209.102 75.2286L208.96 75.3711C195.876 65.5614 177.232 66.6064 165.332 78.5061C153.432 90.4058 152.387 109.05 162.197 122.134L162.109 122.222L263.341 223.453L249.843 236.951L148.612 135.719L148.612 135.719C131.398 115.096 132.473 84.3709 151.835 65.0087ZM296.341 95.2546L276.177 115.418L289.62 128.861L309.784 108.697L296.341 95.2546ZM208.965 101.975L195.523 115.418L269.154 189.05L269.456 189.351L269.456 189.351L269.457 189.351L282.597 202.492L349.809 135.28C366.953 114.741 365.883 84.1408 346.6 64.8574C327.316 45.574 296.716 44.504 276.177 61.6476L289.707 75.1775C302.738 65.4079 321.306 66.4487 333.157 78.2999C345.008 90.151 346.049 108.719 336.28 121.75L336.367 121.837L282.597 175.607L208.965 101.975ZM272.666 64.8574L272.556 64.9681L272.777 64.7469L272.666 64.8574ZM276.177 61.6488L262.735 75.0913L276.177 88.5338L289.62 75.0913L276.177 61.6488Z" fill="black"/>
</g>
<defs>
<clipPath id="clip0_11_2">
<rect width="500" height="500" fill="white"/>
</clipPath>
</defs>
</svg>
