<svg width="521" height="178" viewBox="0 0 521 178" fill="none" xmlns="http://www.w3.org/2000/svg">
<g clip-path="url(#clip0_13_472)">
<rect width="521" height="178" fill="white"/>
<path d="M85.44 136H63.04V52.8H85.44V136ZM164.564 136H101.332V114.496H163.54C166.74 114.496 169.044 112.448 169.044 108.864C169.044 105.28 166.74 103.104 163.54 103.104H126.932C111.444 103.104 100.308 92.864 100.308 78.016C100.308 62.912 111.444 52.8 126.932 52.8H190.164V74.176H127.956C124.756 74.176 122.58 76.096 122.58 79.68C122.58 83.136 124.756 85.312 127.956 85.312H164.564C180.18 85.312 191.316 95.68 191.316 110.528C191.316 125.888 180.18 136 164.564 136ZM305.543 136H281.223L274.311 123.2H235.271L244.743 105.408H264.839L250.631 78.656L220.167 136H195.463L237.959 58.944C240.263 54.848 243.591 52.8 247.943 52.8H253.063C257.415 52.8 260.743 54.848 263.047 58.944L305.543 136ZM467.331 136H394.115V52.8H416.643V114.496H467.331V136Z" fill="black"/>
<path fill-rule="evenodd" clip-rule="evenodd" d="M387 92.9524C387 116.674 367.301 135.905 343 135.905C318.699 135.905 299 116.674 299 92.9524C299 89.5945 299.395 86.3266 300.141 83.1905H323.399C321.865 86.1193 321 89.4372 321 92.9524C321 104.813 330.85 114.429 343 114.429C355.15 114.429 365 104.813 365 92.9524C365 81.0914 355.15 71.4762 343 71.4762H304.886C312.494 58.6377 326.714 50 343 50C367.301 50 387 69.2304 387 92.9524Z" fill="#CD2129"/>
</g>
<defs>
<clipPath id="clip0_13_472">
<rect width="521" height="178" fill="white"/>
</clipPath>
</defs>
</svg>
